<?xml version="1.0" encoding="UTF-8"?>
<svg width="694px" height="380px" viewBox="0 0 694 380" version="1.1" xmlns="http://www.w3.org/2000/svg" xmlns:xlink="http://www.w3.org/1999/xlink">
    <!-- Generator: Sketch 51.3 (57544) - http://www.bohemiancoding.com/sketch -->
    <title>Group</title>
    <desc>Created with Sketch.</desc>
    <defs></defs>
    <g id="Page-1" stroke="none" stroke-width="1" fill="none" fill-rule="evenodd">
        <g id="Artboard-2" transform="translate(-193.000000, -351.000000)">
            <g id="Group" transform="translate(193.000000, 350.000000)">
                <path d="M0.6611,231.792 L28.6191,216.858 C34.8471,233.233 46.5571,240.557 65.0091,240.557 C82.7681,240.557 90.8411,233.407 90.8411,223.488 C90.8411,217.723 88.3041,213.341 83.2301,210.343 C78.1561,207.114 69.1611,203.654 56.0151,199.964 C41.4841,195.582 32.7201,192.122 22.5711,184.973 C12.6531,177.592 7.3491,166.521 7.3491,151.76 C7.3491,137.23 12.4241,125.467 22.8031,116.934 C33.1821,108.169 45.8661,103.787 60.3961,103.787 C86.4591,103.787 107.6361,117.917 118.7061,140.75 L91.3031,155.451 C84.8451,141.611 74.4661,134.692 60.3961,134.692 C47.2501,134.692 39.1781,141.381 39.1781,150.837 C39.1781,155.912 41.2541,160.063 45.4051,163.292 C49.7871,166.29 57.8591,169.75 69.8521,173.44 L80.9231,177.13 C83.4611,177.822 86.9211,179.206 91.3031,181.051 C95.6841,182.666 99.1441,184.28 101.4501,185.895 C106.2941,188.893 113.6751,194.659 116.6731,200.194 C120.1331,205.73 122.6701,213.803 122.6701,223.028 C122.6701,238.02 117.1351,249.782 106.2941,258.547 C95.4541,267.312 81.3861,271.693 64.0871,271.693 C32.0281,271.693 9.6551,256.471 0.6611,231.792" id="Fill-22" fill="#000000"></path>
                <path d="M309.8359,186.5542 L309.8359,242.0582 L280.0839,257.2422 L280.0839,188.6302 C280.0839,174.7912 272.9339,166.7192 260.7099,166.7192 C247.1029,166.7192 239.2609,175.9452 239.2609,192.7812 L239.2609,242.0582 L209.5089,257.2422 L209.5089,188.6302 C209.5089,174.7912 202.3579,166.7192 190.1349,166.7192 C176.9869,166.7192 168.4539,175.9452 168.4539,192.7812 L168.4539,242.0582 L138.7019,257.2422 L138.7019,143.8562 L168.4539,128.3242 L168.4539,154.4952 C175.3739,144.1162 185.9829,139.0422 200.5139,139.0422 C214.5819,139.0422 225.1909,144.5782 231.8799,155.6482 C239.4919,144.5782 251.0229,139.0422 266.2449,139.0422 C292.7699,139.0422 309.8359,157.7242 309.8359,186.5542" id="Fill-24" fill="#000000"></path>
                <path d="M398.9512,230.1914 C407.5832,227.6654 413.8242,222.7144 417.8962,215.2754 C421.9682,207.8374 422.7082,199.6894 420.1162,190.8354 C417.5252,181.9814 412.5112,175.5184 405.0712,171.4474 C397.6312,167.3764 389.7052,166.5714 381.0732,169.0974 C372.4402,171.6234 366.1992,176.5734 362.1272,184.0134 C358.2782,191.3874 357.5382,199.5354 360.1292,208.3894 C362.7202,217.2444 367.7352,223.7064 374.9522,227.8424 C382.3922,231.9134 390.3182,232.7174 398.9512,230.1914 M407.1122,258.0844 C390.7322,262.8774 375.1672,261.4234 360.5742,253.4384 C345.9822,245.4524 336.3672,233.1254 331.5732,216.7464 C326.7802,200.3654 328.2992,185.0214 336.2832,170.4284 C344.2692,155.8364 356.5312,146.0004 372.9112,141.2064 C389.2922,136.4134 404.9222,138.0874 419.5132,146.0734 C434.1062,154.0594 443.8792,166.0984 448.6722,182.4794 C453.4652,198.8594 451.7902,214.4894 443.8052,229.0834 C435.8192,243.6744 423.4932,253.2914 407.1122,258.0844" id="Fill-26" fill="#FF0000"></path>
                <path d="M425.1318,319.4619 C429.5548,318.1669 432.7528,315.6309 434.8388,311.8189 C436.9248,308.0089 437.3038,303.8349 435.9768,299.2979 C434.6488,294.7619 432.0788,291.4499 428.2678,289.3649 C424.4558,287.2789 420.3958,286.8669 415.9728,288.1609 C411.5498,289.4549 408.3528,291.9909 406.2668,295.8029 C404.2938,299.5809 403.9148,303.7549 405.2418,308.2919 C406.5698,312.8279 409.1398,316.1389 412.8368,318.2579 C416.6488,320.3439 420.7088,320.7559 425.1318,319.4619 M429.3138,333.7519 C420.9218,336.2069 412.9468,335.4629 405.4708,331.3709 C397.9938,327.2799 393.0688,320.9649 390.6118,312.5719 C388.1568,304.1809 388.9348,296.3189 393.0258,288.8429 C397.1168,281.3669 403.3998,276.3269 411.7908,273.8719 C420.1838,271.4159 428.1918,272.2739 435.6668,276.3649 C443.1438,280.4559 448.1508,286.6249 450.6068,295.0169 C453.0618,303.4089 452.2028,311.4169 448.1118,318.8939 C444.0218,326.3689 437.7058,331.2959 429.3138,333.7519" id="Fill-28" fill="#999999"></path>
                <path d="M409.1934,372.3271 C411.4424,371.6691 413.0684,370.3791 414.1304,368.4411 C415.1904,366.5031 415.3824,364.3811 414.7084,362.0731 C414.0334,359.7661 412.7264,358.0831 410.7884,357.0221 C408.8494,355.9621 406.7854,355.7521 404.5364,356.4101 C402.2874,357.0681 400.6604,358.3581 399.5994,360.2961 C398.5964,362.2181 398.4044,364.3401 399.0794,366.6461 C399.7544,368.9541 401.0604,370.6381 402.9414,371.7151 C404.8804,372.7751 406.9444,372.9851 409.1934,372.3271 M411.3204,379.5941 C407.0524,380.8431 402.9974,380.4641 399.1954,378.3841 C395.3934,376.3031 392.8884,373.0921 391.6394,368.8241 C390.3904,364.5561 390.7864,360.5581 392.8664,356.7571 C394.9474,352.9551 398.1414,350.3921 402.4094,349.1431 C406.6764,347.8941 410.7494,348.3311 414.5504,350.4121 C418.3524,352.4921 420.8984,355.6291 422.1474,359.8961 C423.3964,364.1641 422.9604,368.2361 420.8794,372.0381 C418.7984,375.8401 415.5884,378.3451 411.3204,379.5941" id="Fill-30" fill="#999999"></path>
                <path d="M363.4053,108.5723 C368.9153,106.9603 372.8983,103.8013 375.4973,99.0523 C378.0953,94.3043 378.5673,89.1053 376.9143,83.4543 C375.2603,77.8033 372.0593,73.6783 367.3113,71.0793 C362.5623,68.4813 357.5053,67.9683 351.9953,69.5803 C346.4853,71.1923 342.5023,74.3523 339.9033,79.1003 C337.4463,83.8063 336.9743,89.0063 338.6283,94.6573 C340.2813,100.3083 343.4823,104.4333 348.0893,107.0723 C352.8373,109.6713 357.8953,110.1843 363.4053,108.5723 M368.6143,126.3743 C358.1603,129.4333 348.2253,128.5063 338.9123,123.4093 C329.5983,118.3123 323.4623,110.4453 320.4033,99.9903 C317.3433,89.5363 318.3123,79.7433 323.4093,70.4293 C328.5063,61.1163 336.3323,54.8383 346.7863,51.7793 C357.2403,48.7203 367.2163,49.7883 376.5293,54.8853 C385.8423,59.9823 392.0803,67.6663 395.1383,78.1213 C398.1983,88.5753 397.1293,98.5513 392.0323,107.8643 C386.9363,117.1783 379.0693,123.3153 368.6143,126.3743" id="Fill-32" fill="#999999"></path>
                <path d="M381.9727,30.9536 C384.8017,30.1256 386.8467,28.5036 388.1807,26.0656 C389.5147,23.6286 389.7577,20.9586 388.9087,18.0576 C388.0597,15.1566 386.4157,13.0386 383.9787,11.7046 C381.5397,10.3706 378.9437,10.1066 376.1157,10.9346 C373.2857,11.7626 371.2417,13.3846 369.9067,15.8226 C368.6457,18.2386 368.4037,20.9086 369.2517,23.8096 C370.1007,26.7106 371.7437,28.8286 374.1097,30.1836 C376.5467,31.5176 379.1447,31.7816 381.9727,30.9536 M384.6477,40.0936 C379.2807,41.6636 374.1797,41.1876 369.3977,38.5706 C364.6167,35.9536 361.4657,31.9146 359.8947,26.5476 C358.3247,21.1806 358.8217,16.1526 361.4387,11.3706 C364.0547,6.5886 368.0737,3.3656 373.4407,1.7956 C378.8077,0.2246 383.9297,0.7726 388.7107,3.3906 C393.4937,6.0066 396.6947,9.9516 398.2657,15.3196 C399.8357,20.6866 399.2867,25.8086 396.6707,30.5906 C394.0537,35.3716 390.0147,38.5226 384.6477,40.0936" id="Fill-34" fill="#999999"></path>
                <polygon id="Fill-36" fill="#000000" points="579.0254 257.5908 544.4284 257.5908 502.4524 205.2368 502.4524 241.7098 472.7004 257.5908 472.7004 119.0048 502.4524 103.4728 502.4524 193.0118 542.1234 142.2708 577.6414 142.2708 531.2824 199.2388"></polygon>
                <path d="M663.5869,189.0913 C660.1269,173.4073 648.5949,165.7963 634.9869,165.7963 C619.0729,165.7963 608.2329,174.3303 604.7739,189.0913 L663.5869,189.0913 Z M605.2339,212.1563 C609.1549,226.6843 619.9949,233.8353 637.7549,233.8353 C649.0559,233.8353 657.8199,229.9153 663.5869,222.3033 L687.5729,236.1413 C676.2719,252.5163 659.4349,260.8213 637.2929,260.8213 C618.1509,260.8213 602.9279,255.0543 591.3969,243.5213 C579.8639,231.9903 574.0979,217.4603 574.0979,199.9313 C574.0979,182.6333 579.8639,168.1033 591.1649,156.5703 C602.4669,144.8083 617.2279,139.0423 634.9869,139.0423 C651.8239,139.0423 665.8939,144.8083 676.7329,156.5703 C687.8039,168.3333 693.3389,182.6333 693.3389,199.9313 C693.3389,203.8523 692.8779,207.7733 692.1859,212.1563 L605.2339,212.1563 Z" id="Fill-38" fill="#000000"></path>
            </g>
        </g>
    </g>
</svg>